<svg xmlns="http://www.w3.org/2000/svg" width="300" height="85" viewBox="0 0 300 85">
    <defs>
        <path id="a" d="M0 83.014h299.912V.604H0z"/>
    </defs>
    <g fill="none" fill-rule="evenodd">
        <path fill="#48B2E8" d="M140.435 38.614a6.05 6.05 0 0 0-2.317-1.829 6.905 6.905 0 0 0-2.895-.64c-1.22 0-2.321.228-3.307.686a7.624 7.624 0 0 0-2.53 1.874 8.552 8.552 0 0 0-1.63 2.789 9.993 9.993 0 0 0-.579 3.43 9.47 9.47 0 0 0 .548 3.228 8.063 8.063 0 0 0 1.586 2.683 7.42 7.42 0 0 0 2.529 1.829c.995.447 2.123.67 3.383.67 1.238 0 2.326-.253 3.26-.762.935-.507 1.727-1.22 2.378-2.133l2.468 1.858c-.162.225-.446.545-.854.961-.406.417-.944.834-1.614 1.25-.67.416-1.478.782-2.423 1.097-.945.315-2.037.472-3.276.472-1.706 0-3.246-.325-4.618-.974-1.37-.65-2.54-1.505-3.504-2.562a11.168 11.168 0 0 1-2.21-3.58 11.227 11.227 0 0 1-.762-4.038c0-1.667.275-3.205.823-4.617.55-1.412 1.315-2.631 2.302-3.658.984-1.026 2.168-1.823 3.55-2.392 1.381-.569 2.905-.854 4.571-.854 1.422 0 2.82.275 4.19.824 1.372.548 2.494 1.391 3.368 2.529l-2.437 1.859zM153.093 43.46h3.84c.569 0 1.133-.046 1.69-.137a4.54 4.54 0 0 0 1.495-.503 2.756 2.756 0 0 0 1.051-1.052c.264-.457.397-1.051.397-1.783 0-.73-.133-1.325-.397-1.782a2.748 2.748 0 0 0-1.05-1.052 4.54 4.54 0 0 0-1.495-.503 10.465 10.465 0 0 0-1.69-.137h-3.84v6.949zm-2.926-9.508h7.589c1.382 0 2.52.187 3.413.563.895.376 1.6.853 2.118 1.432.518.579.88 1.23 1.083 1.95.202.722.304 1.419.304 2.088 0 .692-.122 1.357-.365 1.997a5.653 5.653 0 0 1-1.052 1.737 5.995 5.995 0 0 1-1.677 1.31 5.831 5.831 0 0 1-2.209.656l6.127 9.844h-3.658l-5.485-9.51h-3.262v9.51h-2.926V33.952zM181.996 53.335c1.24 0 2.356-.229 3.353-.687a7.944 7.944 0 0 0 2.56-1.843 8.129 8.129 0 0 0 1.645-2.727 9.583 9.583 0 0 0 .579-3.338c0-1.179-.193-2.29-.579-3.338a8.137 8.137 0 0 0-1.646-2.727 7.956 7.956 0 0 0-2.56-1.844c-.996-.457-2.113-.685-3.352-.685-1.24 0-2.357.228-3.352.685a7.95 7.95 0 0 0-2.56 1.844 8.108 8.108 0 0 0-1.646 2.727 9.545 9.545 0 0 0-.579 3.338c0 1.179.192 2.29.58 3.338a8.1 8.1 0 0 0 1.645 2.727 7.938 7.938 0 0 0 2.56 1.843c.995.458 2.113.687 3.352.687m0 2.742c-1.645 0-3.16-.29-4.54-.868-1.383-.58-2.566-1.377-3.552-2.393a11.057 11.057 0 0 1-2.316-3.596c-.559-1.381-.838-2.875-.838-4.48 0-1.604.28-3.099.838-4.48a11.052 11.052 0 0 1 2.316-3.596c.986-1.016 2.17-1.813 3.552-2.392 1.38-.58 2.895-.87 4.54-.87 1.646 0 3.16.29 4.54.87 1.383.579 2.566 1.376 3.552 2.392a11.08 11.08 0 0 1 2.316 3.596c.558 1.381.838 2.876.838 4.48 0 1.605-.28 3.099-.838 4.48a11.084 11.084 0 0 1-2.316 3.596c-.986 1.016-2.17 1.813-3.552 2.393-1.38.578-2.894.868-4.54.868M203.322 52.969h4.297c.447 0 .94-.046 1.478-.138a4.429 4.429 0 0 0 1.51-.548 3.763 3.763 0 0 0 1.188-1.113c.324-.466.487-1.086.487-1.859 0-1.28-.416-2.24-1.25-2.88-.833-.64-1.96-.96-3.382-.96h-4.328v7.498zm0-10.057h3.993c.548 0 1.066-.057 1.554-.168.487-.112.914-.3 1.28-.564.365-.264.655-.599.868-1.006.214-.406.32-.903.32-1.493 0-.853-.274-1.595-.823-2.225-.548-.63-1.412-.945-2.59-.945h-4.602v6.4zm-2.926-8.96h7.498c.934 0 1.802.111 2.605.335.803.223 1.494.554 2.073.99.579.437 1.037.996 1.371 1.677.336.68.503 1.477.503 2.391 0 1.24-.346 2.25-1.037 3.033-.69.782-1.584 1.356-2.681 1.722v.061c.65.041 1.26.208 1.829.503a4.994 4.994 0 0 1 1.478 1.158 5.606 5.606 0 0 1 1.356 3.703c0 .975-.198 1.834-.595 2.575a5.553 5.553 0 0 1-1.63 1.875c-.69.508-1.494.894-2.408 1.158-.914.264-1.9.395-2.956.395h-7.406V33.951zM223.253 33.951h2.926v18.835h9.904v2.742h-12.83zM242.727 55.529h2.927V33.952h-2.927zM254.857 33.951h3.84l11.886 17.737h.06V33.951h2.927v21.577h-3.719l-12.007-17.737h-.061v17.737h-2.926zM282.418 33.951h2.927v9.326h.243l9.54-9.326h4.084l-10.424 9.966 11.124 11.611h-4.266L285.588 44.74h-.243v10.788h-2.927zM83.302 78.455c.214.32.487.556.82.707.331.153.674.229 1.026.229.198 0 .398-.03.604-.093.204-.062.392-.153.56-.277.168-.123.306-.275.412-.455.107-.18.16-.39.16-.628 0-.337-.106-.593-.32-.769a2.75 2.75 0 0 0-.793-.443c-.317-.12-.661-.234-1.034-.345a4.222 4.222 0 0 1-1.035-.462 2.514 2.514 0 0 1-.793-.794c-.214-.332-.32-.782-.32-1.348 0-.254.054-.525.165-.813.111-.286.285-.55.524-.787.238-.239.543-.437.917-.597.373-.161.823-.24 1.348-.24.476 0 .93.065 1.367.197.434.131.816.397 1.144.8l-.96.874a1.586 1.586 0 0 0-.628-.554 1.98 1.98 0 0 0-.923-.21c-.329 0-.602.044-.82.13a1.474 1.474 0 0 0-.522.332c-.13.136-.225.281-.277.437-.054.157-.08.3-.08.431 0 .37.106.653.32.85a2.5 2.5 0 0 0 .795.48c.314.123.659.233 1.033.332.374.099.718.236 1.034.413.316.176.58.414.795.713.212.3.32.713.32 1.238a2.6 2.6 0 0 1-.24 1.132c-.161.337-.376.62-.647.85a2.9 2.9 0 0 1-.96.53c-.37.122-.763.183-1.183.183a4.3 4.3 0 0 1-1.587-.294c-.501-.198-.899-.5-1.195-.911l.973-.838zM93.938 76.88a2.358 2.358 0 0 0-.116-.677 1.49 1.49 0 0 0-.314-.536 1.442 1.442 0 0 0-.523-.357 1.915 1.915 0 0 0-.733-.13c-.27 0-.52.052-.745.155a1.795 1.795 0 0 0-.935.947c-.086.202-.13.4-.13.598h3.496zm-3.496.885c0 .255.056.487.166.696.11.21.257.388.437.535.181.149.39.264.628.345.239.083.484.125.74.125.344 0 .643-.081.897-.24.255-.162.489-.373.702-.635l.837.64c-.615.796-1.476 1.193-2.585 1.193-.46 0-.876-.077-1.25-.234a2.723 2.723 0 0 1-1.544-1.618 3.453 3.453 0 0 1-.21-1.212c0-.435.076-.84.229-1.213.152-.374.36-.697.627-.973a2.84 2.84 0 0 1 .955-.646 3.063 3.063 0 0 1 1.206-.234c.516 0 .954.09 1.31.271.358.18.651.416.882.708.229.29.395.62.498.985.102.365.153.737.153 1.114v.393h-4.678zM100.783 76.88a2.33 2.33 0 0 0-.117-.677 1.488 1.488 0 0 0-.313-.536 1.445 1.445 0 0 0-.524-.357 1.914 1.914 0 0 0-.732-.13c-.271 0-.52.052-.745.155a1.799 1.799 0 0 0-.936.947 1.52 1.52 0 0 0-.129.598h3.496zm-3.496.885c0 .255.055.487.166.696.111.21.257.388.437.535.18.149.39.264.628.345.238.083.484.125.74.125.344 0 .644-.081.898-.24.254-.162.488-.373.701-.635l.837.64c-.615.796-1.477 1.193-2.585 1.193-.46 0-.876-.077-1.25-.234a2.723 2.723 0 0 1-1.544-1.618 3.453 3.453 0 0 1-.21-1.212c0-.435.076-.84.229-1.213.152-.374.36-.697.628-.973.266-.275.584-.49.953-.646a3.065 3.065 0 0 1 1.207-.234c.517 0 .954.09 1.31.271.358.18.65.416.882.708.229.29.395.62.498.985.102.365.153.737.153 1.114v.393h-4.678zM109.746 79.39c.295 0 .562-.05.8-.153s.439-.242.603-.419c.164-.175.292-.39.382-.64.09-.25.136-.523.136-.818a2.42 2.42 0 0 0-.136-.82 1.857 1.857 0 0 0-.382-.64 1.782 1.782 0 0 0-.603-.419 2.018 2.018 0 0 0-.8-.152c-.295 0-.563.05-.8.152a1.777 1.777 0 0 0-.604.42c-.163.176-.292.39-.381.64a2.4 2.4 0 0 0-.136.819c0 .295.045.568.136.818.09.25.218.465.381.64.164.177.365.316.603.419a2 2 0 0 0 .8.154zm-3.029-8.42h1.108v4.308h.025c.197-.303.48-.543.85-.719a2.69 2.69 0 0 1 1.182-.265c.45 0 .858.079 1.224.234.366.155.677.37.936.646.258.275.457.6.597.973.139.373.209.778.209 1.213 0 .435-.07.837-.209 1.206a2.97 2.97 0 0 1-.597.973c-.259.279-.57.496-.936.652a3.101 3.101 0 0 1-1.224.233c-.394 0-.779-.086-1.152-.258a2.124 2.124 0 0 1-.88-.725h-.025v.836h-1.108V70.97zM118.573 76.88a2.357 2.357 0 0 0-.118-.677 1.488 1.488 0 0 0-.313-.536 1.445 1.445 0 0 0-.524-.357 1.914 1.914 0 0 0-.732-.13c-.271 0-.52.052-.745.155a1.799 1.799 0 0 0-.936.947 1.52 1.52 0 0 0-.129.598h3.497zm-3.497.885c0 .255.055.487.166.696.111.21.257.388.438.535.18.149.39.264.627.345.238.083.485.125.74.125.344 0 .643-.081.898-.24.255-.162.488-.373.702-.635l.836.64c-.615.796-1.477 1.193-2.585 1.193-.46 0-.877-.077-1.25-.234a2.723 2.723 0 0 1-1.544-1.618 3.434 3.434 0 0 1-.209-1.212c0-.435.075-.84.227-1.213a2.99 2.99 0 0 1 .629-.973c.266-.275.584-.49.953-.646a3.063 3.063 0 0 1 1.207-.234c.517 0 .954.09 1.31.271.357.18.65.416.881.708.23.29.396.62.499.985.102.365.153.737.153 1.114v.393h-4.678zM120.395 74.441h1.28l1.728 4.555h.025l1.657-4.555h1.182l-2.77 7.092c-.098.255-.2.486-.307.696a2.12 2.12 0 0 1-.38.535 1.531 1.531 0 0 1-.533.344 2.096 2.096 0 0 1-.766.123c-.164 0-.33-.01-.497-.03a1.765 1.765 0 0 1-.484-.13l.134-1.009c.22.09.44.136.661.136.172 0 .317-.023.434-.068a.831.831 0 0 0 .306-.198c.086-.085.158-.186.214-.3a4.8 4.8 0 0 0 .171-.394l.36-.923-2.415-5.874zM128.138 77.36c0 .295.045.568.136.818.09.251.217.465.38.64.165.177.366.316.604.418.238.104.506.155.8.155.296 0 .563-.051.801-.155a1.75 1.75 0 0 0 .985-1.058c.09-.25.136-.523.136-.818a2.42 2.42 0 0 0-.136-.82 1.854 1.854 0 0 0-.382-.64 1.774 1.774 0 0 0-.603-.418 2.018 2.018 0 0 0-.8-.154c-.295 0-.563.052-.8.154a1.777 1.777 0 0 0-.604.419 1.84 1.84 0 0 0-.381.64 2.4 2.4 0 0 0-.136.819m-1.181 0c0-.428.08-.825.239-1.194a3.067 3.067 0 0 1 1.644-1.632c.377-.16.784-.24 1.219-.24a3.082 3.082 0 0 1 2.862 1.872c.16.369.24.766.24 1.194 0 .426-.08.827-.24 1.2a3.017 3.017 0 0 1-1.644 1.625c-.377.16-.783.24-1.218.24a3.118 3.118 0 0 1-2.204-.892 3.02 3.02 0 0 1-.898-2.173M134.552 74.441h1.108v.9h.024c.14-.312.382-.565.727-.757a2.4 2.4 0 0 1 1.194-.29c.279 0 .548.043.806.13.26.086.484.219.678.4.192.18.346.412.461.695.115.283.173.618.173 1.003v3.756h-1.11V76.83c0-.27-.036-.502-.11-.695a1.256 1.256 0 0 0-.295-.468 1.104 1.104 0 0 0-.424-.258 1.544 1.544 0 0 0-.5-.08c-.23 0-.442.036-.64.11-.196.074-.369.19-.516.351-.148.16-.263.363-.345.61a2.746 2.746 0 0 0-.123.873v3.005h-1.108V74.44zM144.216 79.39c.295 0 .562-.05.8-.153a1.76 1.76 0 0 0 .603-.419c.164-.175.292-.39.382-.64.09-.25.136-.523.136-.818a2.42 2.42 0 0 0-.136-.82 1.857 1.857 0 0 0-.382-.64 1.774 1.774 0 0 0-.603-.419 2.018 2.018 0 0 0-.8-.152c-.295 0-.562.05-.8.152a1.777 1.777 0 0 0-.604.42c-.164.176-.292.39-.381.64a2.4 2.4 0 0 0-.136.819c0 .295.045.568.136.818.09.25.217.465.381.64.164.177.365.316.603.419.239.103.506.154.8.154zm3.029.887h-1.108v-.836h-.025c-.214.31-.508.553-.881.725a2.725 2.725 0 0 1-1.15.258c-.452 0-.86-.078-1.225-.233a2.715 2.715 0 0 1-.937-.652 2.97 2.97 0 0 1-.597-.973 3.416 3.416 0 0 1-.208-1.206c0-.435.07-.84.208-1.213.14-.374.34-.698.597-.973.26-.275.57-.49.937-.646a3.098 3.098 0 0 1 1.224-.234c.42 0 .813.088 1.182.265.37.176.652.416.85.72h.025V70.97h1.108v9.307zM149.793 80.351a.782.782 0 0 1-.573-.24.779.779 0 0 1-.24-.572c0-.223.08-.413.24-.573.16-.16.35-.24.573-.24.222 0 .412.08.572.24.16.16.24.35.24.573 0 .22-.08.412-.24.571-.16.16-.35.241-.572.241M1.182 4.557l6.474 6.475 2.49-2.49L3.67 2.07zM0 31.702h9.156v-3.52H0zM54.41 2.004l-6.475 6.474 2.488 2.49 6.475-6.475zM27.264 9.979h3.52V.822h-3.52zM49.036 31.622h9.157v-3.519h-9.157zM56.898 55.296l-6.475-6.475-2.488 2.488 6.475 6.475zM3.67 57.849l6.475-6.475-2.488-2.488-6.475 6.474zM27.296 59.03h3.52v-9.156h-3.52zM113.81 55.529h2.927V33.952h-2.927zM82.33 33.951h4.357l6.858 16.335h.121l6.797-16.335h4.358v21.577h-2.926V37.791h-.061L94.55 55.528H92.6l-7.284-17.737h-.06v17.737H82.33z"/>
    </g>
</svg>
