<?xml version="1.0" encoding="utf-8"?>
<!-- Generator: Adobe Illustrator 17.0.0, SVG Export Plug-In . SVG Version: 6.00 Build 0)  -->
<!DOCTYPE svg PUBLIC "-//W3C//DTD SVG 1.1//EN" "http://www.w3.org/Graphics/SVG/1.1/DTD/svg11.dtd">
<svg version="1.1" id="Layer_1" xmlns="http://www.w3.org/2000/svg" xmlns:xlink="http://www.w3.org/1999/xlink" x="0px" y="0px"
	 width="300px" height="59.03px" viewBox="0 0 300 59.03" enable-background="new 0 0 300 59.03" xml:space="preserve">
<g>
	<path fill="#48B2E8" d="M140.435,38.614c-0.609-0.792-1.406-1.42-2.317-1.829c-0.907-0.42-1.895-0.639-2.895-0.64
		c-1.22,0-2.321,0.228-3.307,0.686c-0.965,0.442-1.826,1.08-2.53,1.874c-0.716,0.818-1.269,1.764-1.63,2.789
		c-0.392,1.101-0.588,2.262-0.579,3.43c-0.006,1.1,0.179,2.192,0.548,3.228c0.349,0.989,0.888,1.9,1.586,2.683
		c0.704,0.782,1.566,1.406,2.529,1.829c0.995,0.447,2.123,0.67,3.383,0.67c1.238,0,2.326-0.253,3.26-0.762
		c0.935-0.507,1.727-1.22,2.378-2.133l2.468,1.858c-0.162,0.225-0.446,0.545-0.854,0.961c-0.406,0.417-0.944,0.834-1.614,1.25
		s-1.478,0.782-2.423,1.097s-2.037,0.472-3.276,0.472c-1.706,0-3.246-0.325-4.618-0.974c-1.37-0.65-2.54-1.505-3.504-2.562
		c-0.957-1.043-1.707-2.257-2.21-3.58c-0.5-1.288-0.759-2.657-0.762-4.038c0-1.667,0.275-3.205,0.823-4.617
		c0.55-1.412,1.315-2.631,2.302-3.658c0.984-1.026,2.168-1.823,3.55-2.392c1.381-0.569,2.905-0.854,4.571-0.854
		c1.422,0,2.82,0.275,4.19,0.824c1.372,0.548,2.494,1.391,3.368,2.529L140.435,38.614z M153.093,43.46h3.84
		c0.569,0,1.133-0.046,1.69-0.137c0.524-0.079,1.03-0.249,1.495-0.503c0.44-0.248,0.804-0.612,1.051-1.052
		c0.264-0.457,0.397-1.051,0.397-1.783c0-0.73-0.133-1.325-0.397-1.782c-0.247-0.44-0.61-0.804-1.05-1.052
		c-0.465-0.254-0.971-0.424-1.495-0.503c-0.559-0.091-1.124-0.137-1.69-0.137h-3.84L153.093,43.46L153.093,43.46z M150.167,33.952
		h7.589c1.382,0,2.52,0.187,3.413,0.563c0.895,0.376,1.6,0.853,2.118,1.432c0.518,0.579,0.88,1.23,1.083,1.95
		c0.202,0.722,0.304,1.419,0.304,2.088c0,0.692-0.122,1.357-0.365,1.997c-0.243,0.638-0.599,1.226-1.052,1.737
		c-0.476,0.533-1.044,0.977-1.677,1.31c-0.685,0.363-1.436,0.586-2.209,0.656l6.127,9.844h-3.658l-5.485-9.51h-3.262v9.51h-2.926
		L150.167,33.952L150.167,33.952z M181.996,53.335c1.24,0,2.356-0.229,3.353-0.687c0.968-0.437,1.838-1.064,2.56-1.843
		c0.723-0.792,1.282-1.718,1.645-2.727c0.39-1.069,0.586-2.2,0.579-3.338c0-1.179-0.193-2.29-0.579-3.338
		c-0.364-1.009-0.923-1.935-1.646-2.727c-0.722-0.779-1.592-1.406-2.56-1.844c-0.996-0.457-2.113-0.685-3.352-0.685
		c-1.24,0-2.357,0.228-3.352,0.685c-0.968,0.437-1.838,1.064-2.56,1.844c-0.724,0.791-1.283,1.718-1.646,2.727
		c-0.391,1.069-0.587,2.2-0.579,3.338c0,1.179,0.192,2.29,0.58,3.338c0.362,1.009,0.922,1.936,1.645,2.727
		c0.721,0.779,1.592,1.406,2.56,1.843C179.639,53.106,180.757,53.335,181.996,53.335 M181.996,56.077c-1.645,0-3.16-0.29-4.54-0.868
		c-1.383-0.58-2.566-1.377-3.552-2.393c-0.999-1.036-1.785-2.258-2.316-3.596c-0.559-1.381-0.838-2.875-0.838-4.48
		c0-1.604,0.28-3.099,0.838-4.48c0.53-1.338,1.317-2.56,2.316-3.596c0.986-1.016,2.17-1.813,3.552-2.392
		c1.38-0.58,2.895-0.87,4.54-0.87c1.646,0,3.16,0.29,4.54,0.87c1.383,0.579,2.566,1.376,3.552,2.392
		c0.998,1.037,1.785,2.258,2.316,3.596c0.558,1.381,0.838,2.876,0.838,4.48c0,1.605-0.28,3.099-0.838,4.48
		c-0.531,1.338-1.318,2.559-2.316,3.596c-0.986,1.016-2.17,1.813-3.552,2.393C185.156,55.787,183.642,56.077,181.996,56.077
		 M203.322,52.969h4.297c0.447,0,0.94-0.046,1.478-0.138c0.533-0.089,1.044-0.275,1.51-0.548c0.472-0.28,0.878-0.66,1.188-1.113
		c0.324-0.466,0.487-1.086,0.487-1.859c0-1.28-0.416-2.24-1.25-2.88c-0.833-0.64-1.96-0.96-3.382-0.96h-4.328L203.322,52.969
		L203.322,52.969z M203.322,42.912h3.993c0.548,0,1.066-0.057,1.554-0.168c0.487-0.112,0.914-0.3,1.28-0.564
		c0.365-0.264,0.655-0.599,0.868-1.006c0.214-0.406,0.32-0.903,0.32-1.493c0-0.853-0.274-1.595-0.823-2.225
		c-0.548-0.63-1.412-0.945-2.59-0.945h-4.602V42.912L203.322,42.912z M200.396,33.952h7.498c0.934,0,1.802,0.111,2.605,0.335
		c0.803,0.223,1.494,0.554,2.073,0.99c0.579,0.437,1.037,0.996,1.371,1.677c0.336,0.68,0.503,1.477,0.503,2.391
		c0,1.24-0.346,2.25-1.037,3.033c-0.69,0.782-1.584,1.356-2.681,1.722v0.061c0.65,0.041,1.26,0.208,1.829,0.503
		c0.561,0.289,1.063,0.682,1.478,1.158c0.886,1.029,1.367,2.345,1.356,3.703c0,0.975-0.198,1.834-0.595,2.575
		c-0.395,0.74-0.952,1.381-1.63,1.875c-0.69,0.508-1.494,0.894-2.408,1.158s-1.9,0.395-2.956,0.395h-7.406V33.951L200.396,33.952z
		 M223.253,33.951h2.926v18.835h9.904v2.742h-12.83V33.951z M242.727,55.529h2.927V33.952h-2.927V55.529z M254.857,33.951h3.84
		l11.886,17.737h0.06V33.951h2.927v21.577h-3.719l-12.007-17.737h-0.061v17.737h-2.926V33.951z M282.418,33.951h2.927v9.326h0.243
		l9.54-9.326h4.084l-10.424,9.966l11.124,11.611h-4.266L285.588,44.74h-0.243v10.788h-2.927V33.951z M1.182,4.557l6.474,6.475
		l2.49-2.49L3.67,2.07L1.182,4.557z M0,31.702h9.156v-3.52H0V31.702z M54.41,2.004l-6.475,6.474l2.488,2.49l6.475-6.475L54.41,2.004
		z M27.264,9.979h3.52V0.822h-3.52V9.979z M49.036,31.622h9.157v-3.519h-9.157L49.036,31.622z M56.898,55.296l-6.475-6.475
		l-2.488,2.488l6.475,6.475L56.898,55.296z M3.67,57.849l6.475-6.475l-2.488-2.488L1.182,55.36L3.67,57.849z M27.296,59.03h3.52
		v-9.156h-3.52V59.03z M113.81,55.529h2.927V33.952h-2.927V55.529z M82.33,33.951h4.357l6.858,16.335h0.121l6.797-16.335h4.358
		v21.577h-2.926V37.791h-0.061L94.55,55.528H92.6l-7.284-17.737h-0.06v17.737H82.33V33.951z"/>
</g>
</svg>
